<svg width="376" height="360" viewBox="0 0 376 360" fill="none" xmlns="http://www.w3.org/2000/svg">
<path d="M37.6 46C37.6 40.4772 42.0771 36 47.6 36H170.327C172.536 36 174.327 37.7909 174.327 40V162.909C174.327 165.118 172.536 166.909 170.327 166.909H41.6C39.3908 166.909 37.6 165.118 37.6 162.909V46Z" fill="#F2C94C" stroke="black" stroke-width="2"/>
<path d="M37.6 193.818C37.6 191.609 39.3908 189.818 41.6 189.818H170.327C172.536 189.818 174.327 191.609 174.327 193.818V316.727C174.327 318.936 172.536 320.727 170.327 320.727H47.6C42.0771 320.727 37.6 316.25 37.6 310.727V193.818Z" fill="#F2C94C" stroke="black" stroke-width="2"/>
<path d="M198.255 40C198.255 37.7909 200.045 36 202.255 36H324.982C330.505 36 334.982 40.4772 334.982 46V162.909C334.982 165.118 333.191 166.909 330.982 166.909H202.255C200.045 166.909 198.255 165.118 198.255 162.909V40Z" fill="#27AE60" stroke="black" stroke-width="2"/>
<path d="M198.255 193.818C198.255 191.609 200.045 189.818 202.255 189.818H330.982C333.191 189.818 334.982 191.609 334.982 193.818V310.727C334.982 316.25 330.505 320.727 324.982 320.727H202.255C200.045 320.727 198.255 318.936 198.255 316.727V193.818Z" fill="#27AE60" stroke="black" stroke-width="2"/>
<path d="M90.9711 86.656C94.5551 85.184 98.3951 82.624 102.491 78.976C104.475 77.184 106.331 75.648 108.059 74.368C109.787 73.088 111.899 72.448 114.395 72.448C116.955 72.448 119.131 72.896 120.923 73.792C119.387 85.952 118.619 97.344 118.619 107.968C118.619 118.592 119.195 127.744 120.347 135.424C118.555 136.192 116.475 136.576 114.107 136.576C111.739 136.576 109.819 135.808 108.347 134.272C106.875 132.736 106.139 130.688 106.139 128.128C106.139 125.504 106.651 120.032 107.675 111.712C108.699 103.392 109.243 94.368 109.307 84.64C108.603 85.28 107.419 86.56 105.755 88.48C102.043 92.768 99.1311 94.912 97.0191 94.912C94.9711 94.912 93.4351 94.144 92.4111 92.608C91.4511 91.072 90.9711 89.088 90.9711 86.656Z" fill="white"/>
<path d="M98.4449 249.594C97.1649 249.914 96.1089 250.074 95.2769 250.074C92.7169 250.074 90.5409 249.37 88.7489 247.962C87.0209 246.49 86.1569 244.538 86.1569 242.106C86.1569 237.434 88.3329 233.626 92.6849 230.682C97.0369 227.738 101.869 226.266 107.181 226.266C112.557 226.266 116.941 227.578 120.333 230.202C123.789 232.762 125.517 236.506 125.517 241.434C125.517 247.194 122.957 251.866 117.837 255.45C121.229 256.538 123.821 258.298 125.613 260.73C127.469 263.162 128.397 266.01 128.397 269.274C128.397 275.738 125.741 280.986 120.429 285.018C115.117 288.986 108.877 290.97 101.709 290.97C96.7809 290.97 92.5249 289.978 88.9409 287.994C85.3569 286.01 83.5649 283.034 83.5649 279.066C83.5649 276.506 84.4289 274.458 86.1569 272.922C87.8849 271.386 90.0609 270.618 92.6849 270.618C94.0929 270.618 95.3409 270.778 96.4289 271.098C95.9809 272.378 95.7569 273.594 95.7569 274.746C95.7569 277.05 96.6209 278.842 98.3489 280.122C100.077 281.338 102.413 281.946 105.357 281.946C108.365 281.946 110.829 281.018 112.749 279.162C114.669 277.242 115.629 274.746 115.629 271.674C115.629 268.602 114.797 266.234 113.133 264.57C111.469 262.906 109.261 262.074 106.509 262.074C105.037 262.074 103.757 261.69 102.669 260.922C101.645 260.09 101.133 259.098 101.133 257.946C101.133 256.73 101.293 255.642 101.613 254.682C102.765 254.874 103.917 254.97 105.069 254.97C108.013 254.97 110.189 253.946 111.597 251.898C113.005 249.85 113.709 247.418 113.709 244.602C113.709 241.786 113.005 239.546 111.597 237.882C110.189 236.154 108.269 235.29 105.837 235.29C103.405 235.29 101.357 235.93 99.6929 237.21C98.4769 239.386 97.8689 241.626 97.8689 243.93C97.8689 246.234 98.0609 248.122 98.4449 249.594Z" fill="white"/>
<path d="M251.626 86.656C255.21 85.184 259.05 82.624 263.146 78.976C265.13 77.184 266.986 75.648 268.714 74.368C270.442 73.088 272.554 72.448 275.05 72.448C277.61 72.448 279.786 72.896 281.578 73.792C280.042 85.952 279.274 97.344 279.274 107.968C279.274 118.592 279.85 127.744 281.002 135.424C279.21 136.192 277.13 136.576 274.762 136.576C272.394 136.576 270.474 135.808 269.002 134.272C267.53 132.736 266.794 130.688 266.794 128.128C266.794 125.504 267.306 120.032 268.33 111.712C269.354 103.392 269.898 94.368 269.962 84.64C269.258 85.28 268.074 86.56 266.41 88.48C262.698 92.768 259.786 94.912 257.674 94.912C255.626 94.912 254.09 94.144 253.066 92.608C252.106 91.072 251.626 89.088 251.626 86.656Z" fill="white"/>
<path d="M273.265 273.306C274.097 270.682 274.673 268.09 274.993 265.53C275.377 262.97 275.569 260.218 275.569 257.274C275.569 254.33 275.409 251.674 275.089 249.306C274.769 246.938 274.193 244.634 273.361 242.394C271.569 237.658 267.985 235.29 262.609 235.29C259.217 235.29 256.337 236.602 253.969 239.226C251.857 244.282 250.801 251.29 250.801 260.25C250.801 268.442 251.985 274.202 254.353 277.53C256.529 280.474 259.665 281.946 263.761 281.946C266.065 281.946 268.017 281.178 269.617 279.642C271.281 278.042 272.497 275.93 273.265 273.306ZM288.241 256.602C288.241 266.202 285.713 274.33 280.657 280.986C275.601 287.642 268.689 290.97 259.921 290.97C254.737 290.97 250.449 289.594 247.057 286.842C243.729 284.026 241.393 280.506 240.049 276.282C238.769 271.994 238.129 266.97 238.129 261.21C238.129 251.546 240.657 243.322 245.713 236.538C250.833 229.69 257.745 226.266 266.449 226.266C271.633 226.266 275.889 227.706 279.217 230.586C282.609 233.466 284.945 237.082 286.225 241.434C287.569 245.786 288.241 250.842 288.241 256.602Z" fill="white"/>
</svg>
